<svg width="62" height="59" viewBox="0 0 62 59" fill="none" xmlns="http://www.w3.org/2000/svg">
<path d="M12.3704 4.57545L4.94997 16.7826C2.77896 20.354 5.34994 24.9256 9.52947 24.9256H52.3846C56.4686 24.9256 59.0518 20.5404 57.0721 16.9684L50.3064 4.76126C49.3619 3.05726 47.5672 2 45.6189 2H16.9499C15.0785 2 13.3425 2.97626 12.3704 4.57545Z" stroke="#525FE1" stroke-width="3.90777"/>
<path d="M26.0012 32.2691L26.0012 41.0168C26.0012 41.4755 25.6294 41.8473 25.1707 41.8473L23.2033 41.8473C22.873 41.8473 22.573 41.6522 22.4016 41.37C21.7836 40.3525 20.0014 38.0624 16.4775 38.0624C11.9471 38.0624 8.74688 41.1824 8.95872 45.3169C9.15273 49.1035 11.7991 51.9406 16.4775 51.9406C19.9813 51.9406 21.3296 49.6406 21.7857 48.4858C21.9307 48.1186 22.2748 47.8402 22.6696 47.8402L25.4634 47.8402C25.7906 47.8402 26.0874 47.648 26.2212 47.3494L33.1329 31.9295C33.2668 31.6308 33.5635 31.4387 33.8908 31.4387L48.3061 31.4387C48.3622 31.4387 48.4104 31.4426 48.4651 31.4552C49.453 31.6823 59.9192 34.3477 59.9192 45.3169C59.9192 56.3446 49.3412 58.5455 48.4501 58.7114C48.4058 58.7196 48.3678 58.722 48.3227 58.722L36.6897 58.722C36.231 58.722 35.8592 58.3502 35.8592 57.8915L35.8592 48.6707C35.8592 48.212 36.231 47.8402 36.6897 47.8402L38.0968 47.8402C38.4563 47.8402 38.7769 48.0701 38.9398 48.3905C39.5082 49.5085 41.1884 51.9406 45.0488 51.9406C48.3212 51.9406 50.4543 50.1929 51.5408 48.9795C51.966 48.5046 51.6079 47.8402 50.9705 47.8402L47.1788 47.8402C46.9897 47.8402 46.8065 47.7764 46.666 47.6499C46.1685 47.2019 45.0057 46.0399 45.0488 45.0015C45.0864 44.0949 46.051 43.0931 46.4971 42.6766C46.6384 42.5447 46.8254 42.4782 47.0187 42.4782L51.0207 42.4782C51.6466 42.4782 52.0162 41.8297 51.6298 41.3373C50.5485 39.9589 48.3374 37.8483 45.0488 38.0624C41.3236 38.3049 39.5735 40.4116 38.9634 41.3728C38.7861 41.6523 38.4854 41.8473 38.1544 41.8473L36.3935 41.8473C36.068 41.8473 35.7726 42.0374 35.6377 42.3336L28.3996 58.2252C28.2623 58.5267 27.9588 58.7178 27.6275 58.7113L12.2649 58.4092C12.1777 58.4075 12.0925 58.3925 12.011 58.3616C10.7879 57.8979 0.822764 53.7977 1.60704 43.5821C2.41279 33.0868 13.0104 31.5404 13.7621 31.4438C13.7925 31.4399 13.8195 31.4387 13.8501 31.4387L25.1707 31.4387C25.6294 31.4387 26.0012 31.8105 26.0012 32.2691Z" fill="#525FE1"/>
<ellipse cx="16.0061" cy="45.071" rx="2.93698" ry="3.1116" transform="rotate(90 16.0061 45.071)" fill="#525FE1"/>
</svg>
