<svg width="387" height="388" viewBox="0 0 387 388" fill="none" xmlns="http://www.w3.org/2000/svg">
<path d="M53.4486 94.7354C53.4486 94.7354 45.9966 97.1654 53.2218 113.122C60.447 129.079 65.6067 137.082 65.6067 137.082C65.6067 137.082 66.846 140.768 63.768 141.189C60.69 141.61 54.048 140.225 52.4928 143.894C50.8728 147.693 53.5458 151.476 59.0943 154.951C64.6428 158.426 76.5255 166.469 77.5947 167.198C78.6639 167.927 79.6521 169.628 77.5947 170.276C75.5373 170.924 60.366 171.766 61.2084 178.943C62.0508 186.12 79.1094 193.28 80.94 194.09C82.7706 194.9 83.1999 195.71 82.9974 196.747C82.7949 197.784 77.6676 197.557 73.3584 198.01C69.0492 198.464 64.1325 199.679 64.9668 203.778C65.8011 207.876 75.675 216.875 100.51 220.488L112.125 221.411L118.913 211.878C132.213 190.599 131.727 177.25 129.143 173.962C126.559 170.673 122.42 173.621 119.318 176.635C116.216 179.648 113.032 183.682 112.125 183.171C111.218 182.661 110.853 181.819 111.42 179.883C111.987 177.947 117.584 160.329 112.651 155.048C107.719 149.767 97.2615 160.783 95.4471 161.949C93.6327 163.116 92.9766 161.22 93.1062 159.949C93.2358 158.677 94.7748 144.397 95.7144 137.917C96.654 131.437 95.4795 126.982 91.551 125.767C87.7602 124.568 84.504 130.546 82.1955 132.619C79.887 134.693 77.8782 131.364 77.8782 131.364C77.8782 131.364 75.1161 122.275 67.5993 106.432C60.0825 90.5882 53.2866 94.8569 53.2866 94.8569" fill="#EBEBEB"/>
<path d="M112.611 224.157C107.135 212.493 97.7556 191.611 89.607 173.727C81.4584 155.842 74.0712 139.658 68.6523 127.978L62.229 114.143L60.4875 110.385L60.042 109.396C59.9809 109.281 59.9268 109.162 59.88 109.04C59.88 109.04 59.9448 109.145 60.0582 109.364L60.5361 110.336C60.9492 111.203 61.5567 112.458 62.3424 114.07C63.9057 117.31 66.1332 122.016 68.871 127.84C74.3466 139.496 81.7743 155.664 89.931 173.548C98.0877 191.433 107.427 212.364 112.846 224.06" fill="#E0E0E0"/>
<path d="M61.743 146.203C62.0209 146.266 62.2922 146.355 62.553 146.47C63.0552 146.656 63.7842 146.956 64.6752 147.329C66.4572 148.082 68.8953 149.184 71.5683 150.447L78.3885 153.687L80.4621 154.659C80.7225 154.764 80.972 154.895 81.2073 155.048C80.9275 154.996 80.6554 154.909 80.3973 154.789C79.887 154.602 79.1661 154.303 78.2751 153.922C76.4931 153.112 74.0712 152.019 71.4063 150.755L64.5618 147.515L62.4882 146.551C62.2275 146.463 61.9775 146.347 61.743 146.203Z" fill="#E0E0E0"/>
<path d="M82.0254 154.4C81.9363 154.4 83.9856 149.232 86.6019 142.955C89.2182 136.677 91.4619 131.615 91.5105 131.615C91.5591 131.615 89.5584 136.783 86.934 143.068C84.3096 149.354 82.1226 154.4 82.0254 154.4Z" fill="#E0E0E0"/>
<path d="M93.3007 182.386C93.4459 182.139 93.617 181.908 93.811 181.697C94.1998 181.203 94.6939 180.595 95.2771 179.874C96.5083 178.335 98.2093 176.197 99.9994 173.775C101.789 171.353 103.337 169.118 104.446 167.481L105.758 165.546C105.907 165.301 106.078 165.07 106.269 164.857C106.171 165.128 106.038 165.384 105.872 165.619C105.596 166.105 105.183 166.785 104.657 167.619C103.604 169.296 102.089 171.572 100.283 173.994C98.4766 176.416 96.7594 178.538 95.4715 180.036C94.8235 180.782 94.297 181.381 93.9163 181.786C93.7363 182.01 93.5295 182.212 93.3007 182.386Z" fill="#E0E0E0"/>
<path d="M73.326 179.056C73.597 179.039 73.8692 179.055 74.136 179.105L76.2826 179.372C78.0889 179.623 80.5837 179.988 83.3377 180.409C86.0917 180.83 88.5784 181.219 90.3766 181.543L92.5068 181.932C92.77 181.962 93.0284 182.025 93.2764 182.118C93.0054 182.136 92.7332 182.12 92.4664 182.07L90.3279 181.802C88.5135 181.551 86.0188 181.187 83.2648 180.766C80.5108 180.344 78.0241 179.956 76.2259 179.632L74.1036 179.243C73.8383 179.21 73.5775 179.147 73.326 179.056Z" fill="#E0E0E0"/>
<path d="M80.13 205.066C80.4691 205.057 80.8082 205.081 81.1425 205.138L83.8965 205.479C86.2131 205.778 89.4126 206.216 92.9442 206.726C96.4758 207.236 99.6753 207.714 101.984 208.087L104.722 208.532C105.059 208.578 105.392 208.652 105.718 208.751C105.376 208.76 105.034 208.735 104.697 208.678L101.951 208.338C99.6348 208.038 96.4272 207.593 92.8956 207.082C89.364 206.572 86.1645 206.094 83.856 205.73L81.1263 205.276C80.7884 205.237 80.4548 205.167 80.13 205.066Z" fill="#E0E0E0"/>
<path d="M105.135 208.492C105.316 208.174 105.524 207.873 105.758 207.593C106.212 206.977 106.811 206.183 107.532 205.219C109.031 203.211 111.088 200.432 113.275 197.298C115.462 194.163 117.374 191.279 118.735 189.198L120.355 186.711C120.538 186.398 120.747 186.1 120.978 185.82C120.837 186.156 120.666 186.478 120.468 186.784C120.12 187.391 119.601 188.266 118.945 189.327C117.633 191.466 115.754 194.382 113.559 197.516C111.364 200.651 109.282 203.421 107.727 205.39C106.917 206.37 106.309 207.163 105.856 207.698C105.641 207.985 105.4 208.251 105.135 208.492Z" fill="#E0E0E0"/>
<path d="M294.351 190.566C273.598 180.126 265.79 156.295 263.36 134.215C262.955 130.529 261.991 126.722 263.271 123.255C264.551 119.789 268.301 116.994 271.808 118.071C274.716 118.954 276.361 121.951 278.288 124.349C280.828 127.552 284.224 129.97 288.081 131.323C290.592 132.198 293.589 132.522 295.711 130.918C298.619 128.715 298.36 124.292 297.809 120.647C296.783 113.849 295.757 107.055 294.731 100.268C294.181 96.6227 293.638 92.9048 294.27 89.276C294.901 85.6472 296.943 82.0751 300.272 80.6009C303.601 79.1267 308.185 80.5037 309.433 83.9705C309.951 85.4123 309.87 86.9999 310.194 88.4984C310.518 89.9969 311.458 91.5683 312.956 91.787C314.455 92.0057 315.791 90.7583 316.723 89.5271C319.963 85.307 321.826 80.1878 323.535 75.1253C325.244 70.0628 326.856 64.895 329.691 60.3833C332.526 55.8716 336.795 52.0079 341.971 50.9549C347.146 49.9019 353.189 52.3238 355.246 57.2648C357.304 62.2058 355.068 67.8677 352.403 72.5009C348.469 79.3826 343.558 85.6578 337.823 91.1309C336.787 92.111 335.669 93.1721 335.393 94.5896C334.956 97.133 337.605 99.2147 340.124 99.6683C342.975 100.179 345.883 99.4739 348.775 99.3929C351.666 99.3119 354.931 100.13 356.397 102.633C358.43 106.148 355.878 110.506 353.157 113.511C347.754 119.526 341.356 124.565 334.243 128.407C331.7 129.776 329.002 131.048 327.107 133.267C325.212 135.486 324.385 138.937 326.062 141.31C327.739 143.684 331.214 144.032 333.952 143.1C336.689 142.169 338.982 140.282 341.517 138.888C346.255 136.272 352.776 135.648 356.615 139.545C359.134 142.088 359.896 146.025 359.321 149.58C358.746 153.136 357.004 156.36 355.093 159.39C348.418 169.976 339.233 179.056 328.184 184.767C317.136 190.477 306.525 193.126 294.359 190.575" fill="#F5F5F5"/>
<path d="M298.02 175.97C299.941 163.475 302.575 151.099 305.909 138.905L308.485 129.29C309.336 126.139 310.178 123.013 311.191 120.007C313.146 114.237 315.42 108.58 318.003 103.062C320.433 97.781 322.919 92.8562 325.293 88.2635C327.666 83.6708 329.975 79.4426 332.226 75.6761C335.759 69.7146 339.76 64.043 344.19 58.7147C345.753 56.8274 347.017 55.4018 347.884 54.4541L348.872 53.3768C348.98 53.2475 349.099 53.1283 349.228 53.0204C349.143 53.1634 349.043 53.2966 348.929 53.4173L347.981 54.5432C347.171 55.5233 345.923 56.9732 344.393 58.8848C340.054 64.2538 336.122 69.9397 332.631 75.8948C330.404 79.6694 328.136 83.9057 325.787 88.4984C323.438 93.0911 320.967 98.024 318.562 103.297C315.997 108.812 313.736 114.464 311.79 120.226C310.786 123.223 309.951 126.317 309.101 129.476C308.25 132.635 307.408 135.843 306.541 139.083C303.209 151.253 300.562 163.601 298.611 176.068" fill="#E0E0E0"/>
<path d="M311.377 119.959C311.128 119.479 310.932 118.974 310.794 118.452C310.462 117.472 309.984 116.022 309.498 114.265C308.461 110.701 307.189 105.743 305.812 100.268C304.435 94.7921 303.091 89.8592 302.005 86.3276C301.463 84.5618 301.009 83.1362 300.685 82.1561C300.485 81.6546 300.338 81.1333 300.248 80.6009C300.53 81.0591 300.758 81.5484 300.928 82.0589C301.333 83.0147 301.851 84.4241 302.459 86.1818C303.666 89.681 305.083 94.6139 306.468 100.098L309.959 114.135C310.386 115.82 310.751 117.235 311.053 118.379C311.221 118.892 311.33 119.422 311.377 119.959Z" fill="#E0E0E0"/>
<path d="M357.004 104.415C356.408 104.637 355.793 104.802 355.166 104.909C353.983 105.193 352.258 105.589 350.152 106.148C345.923 107.234 340.132 108.935 333.83 111.089C327.528 113.244 321.907 115.471 317.889 117.181C315.872 117.991 314.261 118.752 313.143 119.246C312.578 119.54 311.987 119.778 311.377 119.959C311.886 119.59 312.428 119.27 312.997 119.003C314.082 118.436 315.67 117.642 317.663 116.735C321.648 114.904 327.261 112.62 333.579 110.441C338.969 108.572 344.452 106.982 350.006 105.679C352.136 105.176 353.878 104.869 355.085 104.65C355.715 104.51 356.358 104.431 357.004 104.415Z" fill="#E0E0E0"/>
<path d="M298.482 175.023C298.324 174.869 298.188 174.695 298.077 174.504C297.793 174.075 297.453 173.548 297.032 172.884C296.125 171.507 294.869 169.482 293.354 166.963C290.317 161.917 286.34 154.813 282.055 146.916C277.77 139.018 273.858 131.922 270.925 126.86L267.442 120.834L266.503 119.214C266.38 119.027 266.282 118.826 266.211 118.614C266.371 118.77 266.507 118.947 266.616 119.141L267.661 120.761C268.568 122.138 269.824 124.163 271.339 126.69C274.376 131.736 278.361 138.84 282.679 146.737C286.996 154.635 290.868 161.755 293.8 166.858L297.283 172.892C297.664 173.548 297.971 174.099 298.222 174.512C298.328 174.672 298.415 174.843 298.482 175.023Z" fill="#E0E0E0"/>
<path d="M357.895 145.936C357.716 146.073 357.52 146.187 357.312 146.276L355.595 147.11L349.236 150.237C343.866 152.885 336.487 156.619 328.346 160.767C320.206 164.914 312.778 168.575 307.351 171.11C304.638 172.374 302.434 173.378 300.871 174.042L299.097 174.788C298.897 174.893 298.681 174.967 298.457 175.006C298.638 174.871 298.834 174.757 299.041 174.666L300.758 173.799L307.124 170.673C312.495 168.032 319.866 164.298 328.014 160.143C336.163 155.988 343.574 152.335 349.001 149.799C351.715 148.536 353.918 147.531 355.481 146.867L357.255 146.122C357.458 146.027 357.674 145.965 357.895 145.936Z" fill="#E0E0E0"/>
<path d="M575.85 360.205C575.85 360.326 454.35 360.415 304.549 360.415C154.747 360.415 33.1986 360.326 33.1986 360.205C33.1986 360.083 154.65 359.994 304.549 359.994C454.447 359.994 575.85 360.091 575.85 360.205Z" fill="#263238"/>
<path d="M263.32 360.205L155.654 359.711C149.438 359.672 143.491 357.171 139.116 352.756C134.74 348.341 132.293 342.372 132.31 336.156L133.452 66.2396C133.489 60.0209 135.99 54.0704 140.407 49.6929C144.824 45.3153 150.796 42.8679 157.015 42.8873L264.68 43.3814C270.893 43.42 276.838 45.9185 281.213 50.33C285.588 54.7416 288.038 60.7069 288.025 66.92L286.882 336.836C286.85 343.058 284.351 349.012 279.934 353.394C275.516 357.775 269.541 360.224 263.32 360.205Z" fill="#363158"/>
<path d="M264.526 52.6964L243.653 52.5992C242.278 52.6248 240.97 53.1942 240.015 54.1827C239.06 55.1712 238.536 56.498 238.558 57.8723V61.6631C238.569 62.3435 238.445 63.0194 238.194 63.652C237.943 64.2846 237.57 64.8615 237.096 65.3498C236.622 65.838 236.057 66.2281 235.432 66.4975C234.807 66.7669 234.135 66.9105 233.455 66.92L192.76 66.7337C191.387 66.6934 190.085 66.1111 189.139 65.1139C188.194 64.1167 187.681 62.7858 187.714 61.412V57.6212C187.738 56.2565 187.224 54.9371 186.283 53.9487C185.341 52.9603 184.048 52.3824 182.684 52.34H175.345L157.08 52.2023C152.725 52.1808 148.539 53.8897 145.444 56.9534C142.348 60.0171 140.596 64.1847 140.572 68.54L139.462 332.001C139.443 336.356 141.154 340.541 144.219 343.635C147.284 346.729 151.453 348.479 155.808 348.5L263.263 348.994C265.42 349.004 267.558 348.589 269.555 347.772C271.551 346.955 273.368 345.753 274.9 344.235C276.432 342.716 277.65 340.911 278.484 338.921C279.319 336.932 279.753 334.798 279.763 332.641L280.872 69.188C280.882 67.0319 280.467 64.895 279.65 62.8993C278.834 60.9036 277.633 59.0882 276.115 57.5568C274.597 56.0255 272.792 54.808 270.804 53.9741C268.816 53.1401 266.683 52.706 264.526 52.6964Z" fill="#FAFAFA"/>
<path d="M140.443 100.171H158.052L173.766 115.893L157.428 132.23L140.629 115.423L140.443 100.171Z" fill="#EBEBEB"/>
<path d="M177.354 108.991L168.525 100.171H188.386L177.354 108.991Z" fill="#EBEBEB"/>
<path d="M185.073 116.2L200.536 100.738H254.563C254.563 100.738 262.833 137.674 230.263 161.39L185.073 116.2Z" fill="#EBEBEB"/>
<path d="M178.456 121.125L161.916 137.674L207.689 183.447L224.229 166.348L178.456 121.125Z" fill="#EBEBEB"/>
<path d="M140.24 147.053L150.608 136.297L140.442 126.131L140.24 147.053Z" fill="#EBEBEB"/>
<path d="M156.813 142.639L140.888 158.563V180.693L173.766 214.332L201.622 188.412L156.813 142.639Z" fill="#EBEBEB"/>
<path d="M236.46 166.032C236.46 166.032 270.577 141.019 259.545 100.738H280.759L280.5 214.429L236.46 166.032Z" fill="#EBEBEB"/>
<path d="M230.045 172.593L213.553 189.813L264.13 240.398L279.601 224.003L230.045 172.593Z" fill="#EBEBEB"/>
<path d="M206.66 194.527L180.732 220.269L232.588 271.761L258.468 246.74L206.66 194.527Z" fill="#EBEBEB"/>
<path d="M193.068 323.504L232.71 282.421L270.415 320.855L193.068 323.504Z" fill="#EBEBEB"/>
<path d="M238.89 277.115L280.2 236.21C280.2 238.024 279.843 321.025 279.843 321.025L238.89 277.115Z" fill="#EBEBEB"/>
<path d="M203.55 254.143L226.967 277.561L180.732 325.27L159.372 299.649L203.55 254.143Z" fill="#EBEBEB"/>
<path d="M140.281 302.97C142.492 302.752 199.119 249.721 199.119 249.721L140.281 188.752V302.97Z" fill="#EBEBEB"/>
<path d="M139.462 315.055L153.095 302.97L171.976 325.27H139.462V316.74" fill="#EBEBEB"/>
<path d="M157.08 84.1163C155.639 83.0533 154.285 81.8778 153.03 80.6009C153.03 79.9853 153.03 80.4308 153.03 80.2931L153.087 80.2445L153.184 80.1554L153.386 79.9691L153.775 79.6046L154.512 78.9242L155.784 77.7902C156.169 77.3967 156.605 77.0562 157.08 76.7777C156.791 77.2182 156.442 77.6162 156.043 77.9603L154.828 79.1591L154.107 79.8557L153.718 80.2283L153.524 80.4146L153.419 80.5037L153.37 80.5523V80.2445C154.706 81.4366 155.946 82.7311 157.08 84.1163Z" fill="#263238"/>
<path d="M269.062 77.936C269.064 78.1113 269.013 78.2831 268.917 78.4296C268.821 78.576 268.683 78.6904 268.521 78.7582C268.359 78.8261 268.181 78.8442 268.009 78.8104C267.837 78.7766 267.679 78.6924 267.555 78.5684C267.431 78.4444 267.347 78.2864 267.313 78.1144C267.279 77.9423 267.298 77.7642 267.365 77.6025C267.433 77.4408 267.548 77.303 267.694 77.2066C267.84 77.1102 268.012 77.0596 268.188 77.0612C268.42 77.0612 268.642 77.1534 268.806 77.3175C268.97 77.4815 269.062 77.704 269.062 77.936Z" fill="#263238"/>
<path d="M268.811 80.3417C268.935 80.4651 269.019 80.6224 269.053 80.7937C269.088 80.9651 269.07 81.1427 269.003 81.3041C268.937 81.4655 268.823 81.6035 268.678 81.7006C268.533 81.7977 268.362 81.8495 268.188 81.8495C268.013 81.8495 267.842 81.7977 267.697 81.7006C267.552 81.6035 267.439 81.4655 267.372 81.3041C267.305 81.1427 267.288 80.9651 267.322 80.7937C267.356 80.6224 267.44 80.4651 267.564 80.3417C267.73 80.1785 267.954 80.087 268.188 80.087C268.421 80.087 268.645 80.1785 268.811 80.3417Z" fill="#263238"/>
<path d="M269.062 83.9867C269.041 84.2052 268.94 84.4081 268.777 84.5557C268.615 84.7034 268.403 84.7851 268.184 84.7851C267.964 84.7851 267.752 84.7034 267.59 84.5557C267.427 84.4081 267.326 84.2052 267.305 83.9867C267.293 83.8642 267.307 83.7406 267.346 83.6238C267.385 83.507 267.447 83.3996 267.53 83.3086C267.613 83.2175 267.714 83.1447 267.826 83.0949C267.939 83.0451 268.061 83.0193 268.184 83.0193C268.307 83.0193 268.428 83.0451 268.541 83.0949C268.653 83.1447 268.754 83.2175 268.837 83.3086C268.92 83.3996 268.983 83.507 269.021 83.6238C269.06 83.7406 269.074 83.8642 269.062 83.9867Z" fill="#263238"/>
<path d="M231.106 81.5243H193.214V84.6833H231.106V81.5243Z" fill="#263238"/>
<path d="M226.983 138.2C226.983 123.442 211.48 114.094 195.668 121.49C192.091 123.161 189.164 125.965 187.342 129.468C183.364 137.171 185.122 145.968 188.727 153.274L201.039 184.467C201.427 185.461 202.107 186.315 202.988 186.917C203.87 187.518 204.912 187.84 205.98 187.84C207.047 187.84 208.089 187.518 208.971 186.917C209.852 186.315 210.532 185.461 210.921 184.467L222.982 153.112C227.161 143.554 226.983 138.2 226.983 138.2ZM212.16 151.079C201.533 157.259 190.76 145.838 196.584 134.563C197.351 133.076 198.522 131.835 199.961 130.983C210.597 124.803 221.37 136.224 215.538 147.499C214.774 148.988 213.602 150.23 212.16 151.079Z" fill="#525FE1"/>
<path d="M549.177 250.887H99.7725V316.829H549.177V250.887Z" fill="#939CEF"/>
<g opacity="0.5">
<path d="M549.177 250.887H99.7725V316.829H549.177V250.887Z" fill="black"/>
</g>
<path d="M163.077 359.618C186.956 358.011 205.011 337.35 203.404 313.471C201.797 289.591 181.136 271.536 157.257 273.143C133.378 274.75 115.323 295.411 116.93 319.29C118.537 343.169 139.197 361.225 163.077 359.618Z" fill="#15086A"/>
<path d="M116.839 315.647C116.839 315.687 116.839 315.728 116.839 315.76C116.757 321.451 117.796 327.102 119.898 332.391C121.999 337.681 125.122 342.504 129.088 346.586C133.054 350.669 137.784 353.93 143.011 356.184C148.237 358.438 153.856 359.64 159.546 359.723C165.237 359.805 170.889 358.766 176.178 356.664C181.467 354.563 186.29 351.44 190.373 347.474C194.455 343.508 197.716 338.777 199.97 333.551C202.224 328.325 203.427 322.706 203.509 317.016C203.509 316.975 203.509 316.935 203.509 316.902L116.839 315.647Z" fill="#15086A"/>
<path d="M129.742 315.946C129.653 321.964 131.351 327.872 134.62 332.925C137.889 337.977 142.584 341.947 148.109 344.331C153.635 346.715 159.743 347.407 165.662 346.319C171.581 345.232 177.044 342.413 181.361 338.22C185.678 334.026 188.654 328.647 189.913 322.763C191.172 316.878 190.658 310.752 188.435 305.159C186.212 299.567 182.381 294.759 177.425 291.345C172.47 287.93 166.613 286.062 160.595 285.976C152.53 285.862 144.75 288.954 138.965 294.574C133.179 300.194 129.862 307.882 129.742 315.946Z" fill="#FAFAFA"/>
<path d="M160.595 285.968C152.53 285.851 144.748 288.943 138.962 294.564C133.176 300.184 129.86 307.873 129.742 315.938L190.582 316.821C190.696 308.754 187.601 300.971 181.978 295.185C176.355 289.399 168.663 286.083 160.595 285.968Z" fill="#E0E0E0"/>
<path d="M141.633 316.116C141.579 319.782 142.613 323.381 144.605 326.459C146.597 329.537 149.457 331.955 152.823 333.407C156.189 334.859 159.91 335.28 163.515 334.617C167.121 333.954 170.449 332.237 173.078 329.682C175.708 327.128 177.52 323.851 178.287 320.266C179.054 316.681 178.74 312.949 177.386 309.543C176.031 306.136 173.697 303.208 170.678 301.128C167.659 299.048 164.091 297.911 160.425 297.859C157.992 297.824 155.577 298.268 153.316 299.166C151.054 300.065 148.993 301.4 147.247 303.095C145.502 304.791 144.108 306.813 143.145 309.047C142.182 311.282 141.668 313.684 141.633 316.116Z" fill="#15086A"/>
<path d="M216.963 213.789C216.963 213.789 153.151 218.495 129.483 223.801C112.813 227.535 80.6726 233.991 81.0614 254.208L83.6129 268.707C83.6129 268.707 71.6978 274.15 71.6978 288.05C71.6978 301.95 68.7899 323.496 96.6215 324.362C101.206 324.5 109.914 324.362 109.914 324.362C109.914 324.362 104.576 265.087 159.024 263.353C214.42 261.587 210.742 323.82 210.742 323.82H441.941C441.941 323.82 432.448 263.191 492.08 263.07C551.712 262.948 542.64 324.216 542.64 324.216C542.64 324.216 564.575 326.112 574.781 307.676C584.987 289.241 582.338 276.086 582.338 276.086L581.998 264.43C581.933 262.518 581.144 260.701 579.791 259.347C578.438 257.994 576.621 257.205 574.708 257.14C574.708 257.14 578.693 227.802 572.578 222.723C566.462 217.645 532.952 187.002 532.952 187.002L534.572 186.006C535.173 185.627 535.654 185.084 535.959 184.443C536.264 183.801 536.38 183.086 536.296 182.381C536.211 181.675 535.928 181.008 535.48 180.457C535.031 179.906 534.436 179.493 533.762 179.267C521.037 174.893 495.879 166.234 489.966 164.169C489.08 163.854 488.157 163.658 487.22 163.585C483.688 163.318 473.693 162.686 455.346 162.492C432.998 162.249 344.271 162.492 344.271 162.492C344.271 162.492 313.734 165.003 296.724 172.487C278.888 180.36 216.963 213.789 216.963 213.789Z" fill="#939CEF"/>
<g opacity="0.4">
<path d="M87.8817 286.43C85.5651 285.96 82.0173 285.92 80.2515 287.483C78.9393 288.649 78.591 290.537 78.3966 292.278C78.0246 294.664 78.0794 297.097 78.5586 299.463C78.8029 300.645 79.2888 301.764 79.9857 302.749C80.6826 303.735 81.5756 304.565 82.6086 305.19C84.7308 306.34 87.6306 306.154 89.2749 304.38C90.7815 302.76 90.9516 300.33 90.8949 298.167C90.8382 295.04 91.0893 292.392 90.5142 289.322C90.3873 288.67 90.11 288.057 89.7042 287.532C89.5024 287.217 89.2308 286.953 88.9105 286.761C88.5902 286.568 88.2298 286.452 87.8574 286.422" fill="black"/>
</g>
<path d="M83.6291 268.707C90.4007 268.707 96.9698 268.335 103.733 267.897C104.47 267.93 105.196 267.71 105.791 267.274C106.063 266.935 106.265 266.546 106.386 266.129C106.507 265.712 106.544 265.275 106.495 264.844C106.495 261.215 106.35 257.084 103.596 254.719C101.911 253.277 99.6023 252.823 97.391 252.621C91.8997 252.027 86.345 252.579 81.0776 254.241L83.6291 268.707Z" fill="#FAFAFA"/>
<path d="M224.31 321.965C224.31 321.965 224.31 321.77 224.261 321.381C224.213 320.993 224.197 320.418 224.148 319.68C224.067 318.174 223.945 315.979 223.792 313.144C223.638 310.309 223.443 306.834 223.038 302.816C222.62 298.267 221.821 293.761 220.649 289.346C219.17 284.013 216.977 278.904 214.128 274.159C210.902 268.679 206.614 263.898 201.517 260.097C190.59 252.321 175.823 247.947 160.377 247.736C144.93 247.526 130.156 252.41 119.496 260.599C114.386 264.379 109.911 268.948 106.236 274.134C103.028 278.637 100.42 283.538 98.4764 288.714C96.8736 292.992 95.7728 297.442 95.1959 301.974C94.7442 305.391 94.6114 308.843 94.799 312.285C94.9319 314.46 95.2025 316.624 95.609 318.765C95.7386 319.486 95.8439 320.045 95.9087 320.434C95.9735 320.823 95.9978 321.009 95.9978 321.009C95.9978 321.009 95.9492 320.823 95.8682 320.45L95.5199 318.83C95.0791 316.693 94.7868 314.528 94.6451 312.35C94.4249 308.897 94.5334 305.431 94.9691 301.998C95.5274 297.443 96.6147 292.969 98.2091 288.666C100.145 283.449 102.754 278.506 105.969 273.964C109.652 268.736 114.147 264.131 119.285 260.324C129.994 252.094 144.8 247.161 160.369 247.364C175.937 247.566 190.727 251.981 201.743 259.83C206.871 263.669 211.181 268.494 214.42 274.021C217.266 278.803 219.446 283.95 220.9 289.322C222.065 293.756 222.848 298.281 223.241 302.849C223.621 306.899 223.792 310.349 223.921 313.184C224.051 316.019 224.14 318.222 224.205 319.729C224.205 320.466 224.253 321.033 224.269 321.43C224.286 321.827 224.31 321.965 224.31 321.965Z" fill="white"/>
<path d="M226.74 322.969V322.483L226.691 321.049C226.651 319.77 226.594 317.898 226.513 315.452C226.375 310.536 226.173 303.351 225.914 294.206C225.655 285.061 225.355 273.956 225.007 261.239C224.917 258.056 224.836 254.759 224.739 251.397C224.682 249.68 224.758 247.96 224.966 246.254L225.331 243.646L225.865 241.03C226.704 237.455 227.912 233.978 229.47 230.653C231.074 227.169 233.057 223.871 235.383 220.82L275.421 195.597L286.234 188.793C289.879 186.371 293.706 184.234 297.68 182.402C301.744 180.488 305.914 178.808 310.17 177.372C312.292 176.626 314.471 176.019 316.65 175.371C318.829 174.723 321.048 174.188 323.3 173.751C331.791 171.934 340.422 170.85 349.099 170.511C357.424 170.112 365.764 170.139 374.087 170.592H374.322L374.265 170.827L363.508 218.949C361.521 222.212 359.892 225.68 358.648 229.293C357.425 232.719 356.875 236.35 357.028 239.985C357.304 243.54 357.401 247.023 357.49 250.401C357.579 253.779 357.62 257.051 357.685 260.235C357.871 272.952 357.919 284.04 357.952 293.177C357.984 302.314 357.952 309.499 357.952 314.407C357.952 316.837 357.952 318.725 357.952 320.005C357.952 320.628 357.952 321.106 357.952 321.438C357.952 321.77 357.952 321.924 357.952 321.924C357.952 321.924 357.952 321.754 357.952 321.438C357.952 321.122 357.952 320.628 357.952 320.005C357.952 318.725 357.952 316.854 357.952 314.407C357.952 309.499 357.879 302.314 357.822 293.185C357.766 284.057 357.685 272.935 357.466 260.235C357.401 257.059 357.331 253.784 357.255 250.409C357.158 247.032 357.061 243.565 356.777 240.009C356.613 236.328 357.163 232.651 358.397 229.179C359.632 225.537 361.262 222.042 363.257 218.755V218.811C366.554 203.996 370.159 187.829 373.974 170.681L374.16 170.924C365.856 170.477 357.534 170.455 349.228 170.859C340.573 171.194 331.963 172.278 323.494 174.099C321.251 174.545 319.064 175.168 316.869 175.719C314.674 176.27 312.527 176.975 310.389 177.712C306.132 179.151 301.962 180.833 297.898 182.75C293.944 184.57 290.137 186.693 286.51 189.1L275.688 195.904L235.65 221.071V221.031C233.328 224.061 231.351 227.34 229.753 230.807C228.197 234.106 226.992 237.56 226.157 241.11C224.334 248.052 225.25 254.88 225.266 261.239L226.076 294.206C226.294 303.343 226.465 310.536 226.578 315.444C226.635 317.874 226.667 319.77 226.699 321.049C226.699 321.67 226.699 322.148 226.699 322.483C226.74 322.807 226.74 322.969 226.74 322.969Z" fill="#15086A"/>
<path d="M373.795 171.928H374.176L375.286 171.888L379.587 171.783L395.536 171.475L449.304 170.551H449.409L449.474 170.632L457.007 179.858C464.637 189.23 471.911 198.14 478.52 206.24L480.95 209.237C481.737 210.241 482.413 211.328 482.967 212.477C483.971 214.608 484.516 216.926 484.568 219.282C484.619 221.637 484.176 223.977 483.267 226.15L480.837 231.82L473.401 249.024L471.36 253.69L470.817 254.905C470.696 255.172 470.623 255.31 470.623 255.31C470.623 255.31 470.671 255.164 470.777 254.889C470.882 254.613 471.068 254.184 471.279 253.657C471.741 252.572 472.397 250.984 473.247 248.959L480.537 231.706C481.93 228.045 484.385 224.19 484.215 219.492C484.179 217.104 483.626 214.752 482.595 212.599C482.052 211.48 481.389 210.423 480.618 209.448L478.188 206.451L456.65 180.093L449.125 170.867L449.287 170.948L395.512 171.758L379.563 171.945H375.262H374.16L373.795 171.928Z" fill="#15086A"/>
<path d="M346.62 243.435C346.62 243.435 346.847 243.435 347.26 243.338C347.868 243.23 348.446 242.999 348.961 242.658C349.777 242.125 350.388 241.331 350.694 240.406C350.88 239.831 350.957 239.227 350.921 238.624C350.902 237.951 350.73 237.292 350.419 236.696C350.057 236.017 349.519 235.448 348.863 235.048C348.206 234.648 347.454 234.431 346.685 234.42H341.225H328.711C327.654 234.422 326.636 234.821 325.86 235.538C325.102 236.228 324.618 237.168 324.499 238.186C324.376 239.17 324.557 240.168 325.017 241.046C325.487 241.87 326.216 242.517 327.091 242.884C327.957 243.181 328.876 243.295 329.788 243.216H332.437H337.2L344.093 243.281L345.964 243.322C346.184 243.317 346.403 243.333 346.62 243.37C346.402 243.396 346.183 243.409 345.964 243.411H344.093L337.2 243.476H332.437H329.788C329.326 243.476 328.881 243.476 328.387 243.476C327.891 243.445 327.404 243.333 326.945 243.144C325.985 242.749 325.183 242.045 324.669 241.143C324.155 240.195 323.954 239.109 324.094 238.041C324.221 236.904 324.762 235.854 325.613 235.091C326.465 234.328 327.567 233.904 328.711 233.901H341.225H346.693C347.519 233.919 348.326 234.159 349.027 234.597C349.729 235.034 350.299 235.653 350.678 236.388C351.002 237.026 351.177 237.73 351.188 238.446C351.215 239.078 351.124 239.709 350.921 240.309C350.579 241.271 349.919 242.088 349.05 242.625C348.514 242.966 347.907 243.179 347.276 243.249C347.066 243.337 346.845 243.399 346.62 243.435Z" fill="#15086A"/>
<path d="M238.566 220.861L362.277 218.576L442.791 217.102L469.343 201.769C469.848 201.475 470.284 201.077 470.624 200.602C470.963 200.126 471.198 199.584 471.312 199.011C471.426 198.439 471.417 197.848 471.286 197.279C471.154 196.71 470.904 196.175 470.55 195.71L454.018 173.994C453.168 172.876 452.074 171.967 450.819 171.338C449.563 170.709 448.181 170.376 446.776 170.365L356.721 169.636C356.721 169.636 322.814 167.66 296.092 182.596C267.993 198.367 238.566 220.861 238.566 220.861Z" fill="#15086A"/>
<path d="M295.258 171.88C295.258 171.88 301.462 174.707 297.429 177.323C293.395 179.939 230.717 219.443 230.717 219.443L216.307 212.923C241.83 198.723 267.604 184.913 295.258 171.88Z" fill="#5F69CE"/>
<path d="M232.742 220.447L232.353 220.545L231.211 220.796L226.813 221.703C222.99 222.464 217.449 223.533 210.613 224.716C196.843 227.081 177.792 229.835 156.594 231.666C151.288 232.128 146.064 232.476 141.107 232.832C136.15 233.189 131.273 233.472 126.689 233.885C117.511 234.695 109.298 236.024 102.624 238.008C97.3186 239.483 92.213 241.6 87.42 244.31C85.6947 245.217 84.4635 246.108 83.5968 246.643L82.6086 247.266L82.2603 247.469C82.3642 247.385 82.4723 247.307 82.5843 247.234L83.5482 246.57C84.4068 246.011 85.6218 245.096 87.339 244.14C92.103 241.355 97.197 239.178 102.502 237.66C109.193 235.627 117.43 234.258 126.616 233.44C131.209 233.002 136.036 232.695 141.042 232.362C146.048 232.03 151.224 231.642 156.521 231.18C177.711 229.349 196.786 226.644 210.532 224.352C217.409 223.209 222.949 222.189 226.78 221.476L231.195 220.666L232.345 220.455L232.742 220.447Z" fill="#15086A"/>
<path d="M430.285 296.887C430.285 297.009 383.742 297.098 326.338 297.098C268.933 297.098 222.382 297.009 222.382 296.887C222.382 296.766 268.917 296.676 326.338 296.676C383.759 296.676 430.285 296.774 430.285 296.887Z" fill="#15086A"/>
<path d="M104.43 276.54C104.43 276.661 97.8447 276.75 89.7285 276.75C81.6123 276.75 75.027 276.661 75.027 276.54C75.027 276.418 81.6123 276.329 89.7285 276.329C97.8447 276.329 104.43 276.427 104.43 276.54Z" fill="#15086A"/>
<path d="M377.457 175.087L373.795 214.648L439.341 212.777L465.755 197.419L448.656 175.087H377.457Z" fill="#5F69CE"/>
<path d="M254.086 216.673C254.086 216.673 293.63 188.112 309.23 182.434C324.288 176.958 332.137 175.581 346.28 175.144C359.799 174.755 368.036 175.144 368.036 175.144L357.587 215.361L254.086 216.673Z" fill="#5F69CE"/>
<path d="M248.302 216.77C248.303 215.54 248.63 214.333 249.251 213.271C249.871 212.209 250.763 211.332 251.834 210.727L260.922 205.624C263.511 204.167 266.432 203.403 269.403 203.405C271.232 203.407 273.05 203.697 274.789 204.264C276.683 204.919 278.332 206.136 279.515 207.752C280.699 209.369 281.362 211.308 281.415 213.311C281.466 214.657 281.245 215.999 280.766 217.257C280.286 218.514 279.557 219.663 278.623 220.632C277.689 221.602 276.569 222.373 275.33 222.899C274.09 223.426 272.758 223.696 271.411 223.695H255.211C253.377 223.691 251.62 222.96 250.325 221.661C249.03 220.363 248.302 218.604 248.302 216.77Z" fill="#939CEF"/>
<path d="M248.302 216.77C248.302 216.77 248.302 217.078 248.408 217.645C248.53 218.479 248.804 219.283 249.218 220.018C249.872 221.175 250.837 222.126 252.004 222.764C252.732 223.145 253.522 223.392 254.337 223.493C255.267 223.562 256.199 223.581 257.131 223.55L270.99 223.501C272.304 223.536 273.612 223.322 274.846 222.869C276.148 222.382 277.332 221.625 278.32 220.648C279.309 219.671 280.079 218.496 280.581 217.199C281.091 215.832 281.298 214.37 281.188 212.914C281.08 211.48 280.657 210.087 279.95 208.834C279.243 207.581 278.269 206.499 277.098 205.665C275.967 204.883 274.692 204.332 273.347 204.045C269.654 203.171 265.775 203.544 262.315 205.106C261.27 205.576 260.315 206.167 259.367 206.677L256.661 208.184L252.004 210.76C250.832 211.391 249.865 212.343 249.218 213.506C248.809 214.243 248.535 215.046 248.408 215.879C248.327 216.446 248.335 216.754 248.31 216.754C248.28 216.458 248.28 216.159 248.31 215.863C248.401 215.013 248.654 214.188 249.055 213.433C249.692 212.223 250.669 211.226 251.866 210.565L256.491 207.933L259.18 206.402C260.12 205.884 261.076 205.284 262.145 204.782C265.67 203.159 269.635 202.76 273.412 203.648C274.805 203.925 276.13 204.476 277.308 205.268C278.533 206.136 279.551 207.263 280.291 208.569C281.03 209.875 281.472 211.329 281.585 212.825C281.704 214.344 281.488 215.87 280.953 217.296C280.43 218.651 279.626 219.878 278.592 220.898C277.559 221.917 276.32 222.705 274.959 223.21C273.68 223.67 272.325 223.887 270.966 223.849L257.107 223.809C256.164 223.829 255.22 223.799 254.28 223.72C253.427 223.601 252.603 223.327 251.85 222.91C250.656 222.242 249.678 221.247 249.031 220.042C248.635 219.286 248.385 218.461 248.294 217.612C248.274 217.332 248.277 217.05 248.302 216.77Z" fill="#15086A"/>
<path d="M355.668 220.86H355.117L353.003 220.909L345.235 221.047C338.674 221.168 329.618 221.411 319.606 221.687C309.595 221.962 300.531 222.148 293.97 222.197C290.689 222.197 288.033 222.197 286.194 222.197H284.08H283.537C283.473 222.209 283.407 222.209 283.343 222.197C283.407 222.187 283.473 222.187 283.537 222.197H284.08L286.194 222.148L293.962 222.011C300.523 221.889 309.587 221.646 319.598 221.379C329.61 221.112 338.674 220.909 345.235 220.86C348.475 220.86 351.172 220.86 353.003 220.86H355.117H355.668Z" fill="white"/>
<path d="M345.113 233.035C342.755 233.248 340.385 233.319 338.018 233.245C335.65 233.319 333.281 233.248 330.922 233.035C333.281 232.826 335.65 232.756 338.018 232.824C340.385 232.756 342.754 232.826 345.113 233.035Z" fill="white"/>
<path d="M347.721 189.692C347.762 189.797 338.957 193.466 328.047 197.881C317.136 202.295 308.258 205.794 308.21 205.681C308.161 205.568 316.974 201.906 327.885 197.492C338.795 193.077 347.673 189.586 347.721 189.692Z" fill="white"/>
<path d="M329.869 192.47C329.918 192.583 321.526 196.277 311.134 200.724C300.742 205.171 292.285 208.694 292.237 208.589C292.188 208.484 300.58 204.79 310.972 200.335C321.364 195.88 329.821 192.349 329.869 192.47Z" fill="white"/>
<path d="M444.8 220.82C444.8 220.933 427.28 221.136 405.669 221.265C384.058 221.395 366.538 221.403 366.538 221.265C366.538 221.128 384.05 220.95 405.669 220.828C427.288 220.707 444.8 220.731 444.8 220.82Z" fill="white"/>
<path d="M128.73 226.368C128.575 226.421 128.415 226.453 128.252 226.466L126.883 226.644C126.284 226.709 125.555 226.798 124.712 226.944C123.87 227.089 122.906 227.195 121.853 227.405C119.739 227.778 117.236 228.329 114.498 229.025C111.532 229.844 108.61 230.811 105.742 231.925C102.697 233.132 99.8696 234.452 97.3424 235.756C94.8152 237.06 92.6282 238.373 90.8624 239.547C89.9471 240.106 89.1533 240.673 88.4324 241.167C87.7115 241.661 87.1202 242.066 86.6342 242.423L85.5083 243.233C85.3794 243.332 85.241 243.419 85.0952 243.492C85.2026 243.372 85.322 243.263 85.4516 243.168L86.537 242.301C87.0068 241.929 87.59 241.491 88.2947 240.981C88.9994 240.471 89.7689 239.904 90.7247 239.361C92.5067 238.154 94.7099 236.834 97.2047 235.481C102.666 232.561 108.452 230.291 114.442 228.717C117.196 228.005 119.715 227.478 121.845 227.146C122.906 226.952 123.87 226.854 124.72 226.741C125.571 226.628 126.34 226.555 126.899 226.514L128.284 226.409C128.432 226.385 128.581 226.371 128.73 226.368Z" fill="white"/>
<path d="M273.38 207.261C273.38 207.261 273.145 206.945 272.57 206.507C271.793 205.912 270.869 205.54 269.897 205.43C268.439 205.308 266.971 205.465 265.571 205.892C260.639 207.134 256.058 209.492 252.182 212.785C250.254 214.405 249.234 215.596 249.177 215.539C249.373 215.229 249.601 214.942 249.857 214.68C250.527 213.936 251.236 213.228 251.98 212.558C254.454 210.354 257.265 208.56 260.306 207.244C261.976 206.514 263.708 205.936 265.482 205.519C266.927 205.099 268.441 204.967 269.937 205.13C270.954 205.27 271.906 205.706 272.675 206.386C272.879 206.569 273.062 206.776 273.218 207.001C273.347 207.163 273.396 207.253 273.38 207.261Z" fill="white"/>
<path d="M144.452 186.986C141.212 169.263 139.033 166.542 137.203 160.443C135.372 154.343 132.464 150.382 128.843 148.981C126.413 148.041 114.207 143.643 109.962 145.101C105.81 146.578 101.856 148.564 98.1929 151.014C95.35 152.9 93.1956 155.657 92.0531 158.871L85.5731 177.153L96.9779 188.493L102.697 176.343L108.901 190.923L107.986 205.624L143.569 215.199C146.777 210.015 146.291 197.038 144.452 186.986Z" fill="#525FE1"/>
<g opacity="0.2">
<path d="M135.21 167.652C133.638 176.877 133.387 178.182 131.816 187.375C131.273 190.542 129.694 195.475 127.442 197.775C125.773 199.468 124.137 201.096 121.813 201.647C119.658 202.158 116.377 202.214 114.352 201.323C112.327 200.432 110.594 196.463 111.428 194.43C114.45 195.078 115.381 196.05 117.981 194.43C120.249 192.988 123.473 189.797 124.704 187.407C129.896 177.363 131.33 177.007 135.234 167.652" fill="black"/>
</g>
<path d="M109.428 185.528C108.852 184.753 108.327 183.941 107.856 183.098L104.195 177.08L100.437 171.159C99.8764 170.362 99.3703 169.529 98.922 168.664C99.1169 168.841 99.2884 169.043 99.4323 169.263C99.7401 169.66 100.169 170.252 100.68 170.989C101.717 172.463 103.11 174.528 104.551 176.853C105.993 179.178 107.249 181.332 108.116 182.912C108.553 183.722 108.925 184.338 109.12 184.791C109.26 185.019 109.364 185.268 109.428 185.528Z" fill="#263238"/>
<path d="M134.262 202.077C134.004 202.211 133.733 202.317 133.452 202.392C133.12 202.504 132.782 202.595 132.44 202.668C131.992 202.789 131.538 202.884 131.079 202.951C129.892 203.163 128.689 203.274 127.483 203.283C126.003 203.286 124.526 203.159 123.068 202.903C121.612 202.629 120.183 202.225 118.799 201.696C117.68 201.259 116.596 200.733 115.559 200.124C115.106 199.873 114.749 199.598 114.393 199.379C114.098 199.187 113.814 198.979 113.542 198.756C113.295 198.586 113.07 198.388 112.87 198.164C112.919 198.099 113.923 198.885 115.705 199.865C116.75 200.428 117.832 200.918 118.945 201.331C121.68 202.351 124.572 202.88 127.491 202.895C128.68 202.896 129.868 202.818 131.047 202.66C133.023 202.376 134.238 201.996 134.262 202.077Z" fill="#263238"/>
<path d="M119.982 174.464C119.917 174.78 116.094 182.394 116.094 182.394L98.0472 172.884L96.2085 165.108C95.905 163.86 95.1194 162.782 94.0234 162.111C92.9275 161.44 91.6104 161.23 90.3603 161.528L85.0386 163.707C84.8191 163.793 84.6243 163.932 84.4717 164.111C84.319 164.291 84.2132 164.505 84.1638 164.736C84.0909 165.124 84.1638 165.546 84.8685 165.456C86.1888 165.351 88.9185 165.06 88.9185 165.06L87.663 169.49C87.3316 170.651 87.4592 171.896 88.0194 172.965L88.8294 174.496L90.5871 177.339H90.5466C90.5466 177.339 108.091 195.362 117.941 196.536C123.862 197.241 130.569 180.644 130.569 180.644L119.982 174.464Z" fill="#B78876"/>
<path d="M88.7888 165.359C88.7888 165.359 88.9265 165.173 89.2262 164.971C89.6275 164.691 90.1061 164.544 90.5951 164.549C90.8504 164.564 91.0972 164.646 91.3096 164.789C91.5219 164.931 91.692 165.128 91.802 165.359C91.9721 165.724 91.8587 165.967 91.802 165.951C91.7453 165.934 91.802 165.724 91.6076 165.448C91.4881 165.274 91.3306 165.128 91.1468 165.023C90.963 164.918 90.7578 164.855 90.5465 164.841C90.1082 164.847 89.6776 164.958 89.291 165.165C89.0399 165.286 88.8131 165.392 88.7888 165.359Z" fill="#AA6550"/>
<path d="M91.0649 168.121C91.0649 168.121 90.9434 167.976 90.7733 167.757C90.556 167.478 90.2677 167.262 89.9386 167.133C89.6094 167.003 89.2516 166.964 88.9022 167.02C88.6268 167.02 88.4567 167.117 88.4405 167.085C88.4243 167.052 88.5701 166.931 88.8617 166.834C89.2471 166.721 89.659 166.739 90.0327 166.886C90.4065 167.033 90.7211 167.299 90.9272 167.644C91.073 167.919 91.0892 168.113 91.0649 168.121Z" fill="#AA6550"/>
<path d="M123.724 150.431L118.864 173.589L131.824 181.373L136.798 167.141C136.798 167.141 134.708 149.856 123.724 150.431Z" fill="#525FE1"/>
<path d="M130.706 150.836C130.706 150.836 130.601 150.925 130.374 151.047C130.147 151.168 129.823 151.346 129.394 151.565C128.536 152.002 127.272 152.618 125.692 153.323C121.586 155.2 117.263 156.56 112.822 157.373C108.352 158.171 103.765 158.017 99.3593 156.919C98.0408 156.573 96.7559 156.109 95.5199 155.534C95.0744 155.348 94.7099 155.145 94.5236 155.032C94.4074 154.974 94.2963 154.906 94.1915 154.829C94.6659 154.99 95.131 155.176 95.5847 155.388C96.8436 155.897 98.1376 156.314 99.4565 156.636C103.829 157.636 108.357 157.747 112.773 156.96C117.185 156.147 121.489 154.835 125.603 153.047C127.223 152.383 128.463 151.808 129.346 151.427C129.786 151.2 130.24 151.003 130.706 150.836Z" fill="#EBEBEB"/>
<path d="M134.116 153.396C134.005 153.496 133.883 153.583 133.752 153.655L132.683 154.343C132.117 154.713 131.534 155.054 130.933 155.364C130.236 155.728 129.459 156.174 128.544 156.579L127.134 157.227C126.64 157.454 126.105 157.64 125.563 157.859C124.485 158.304 123.287 158.669 122.039 159.074C116.57 160.723 110.854 161.4 105.151 161.074C103.839 160.969 102.591 160.896 101.441 160.71C100.858 160.621 100.299 160.564 99.7643 160.467L98.2334 160.159C97.2614 159.989 96.3947 159.73 95.6333 159.535C94.9785 159.377 94.3323 159.185 93.6974 158.96L92.4905 158.539C92.346 158.501 92.2071 158.443 92.0774 158.369C92.2268 158.377 92.3741 158.407 92.5148 158.458L93.746 158.798C94.2725 158.96 94.9205 159.147 95.69 159.309C96.4595 159.471 97.31 159.722 98.2982 159.868L99.821 160.143C100.347 160.24 100.906 160.289 101.441 160.362C102.591 160.532 103.871 160.596 105.126 160.686C110.787 160.973 116.456 160.302 121.893 158.701C123.133 158.312 124.323 157.964 125.401 157.527C125.935 157.316 126.47 157.138 126.964 156.927L128.382 156.304C129.297 155.931 130.074 155.493 130.812 155.153C131.549 154.813 132.116 154.481 132.585 154.206L133.703 153.59C133.832 153.507 133.971 153.442 134.116 153.396Z" fill="#EBEBEB"/>
<path d="M131.792 181.373C131.429 181.22 131.077 181.041 130.739 180.838L127.888 179.218L118.168 173.605L118.046 173.532V173.395C118.394 171.669 118.767 169.806 119.156 167.895C119.739 165.011 120.306 162.273 120.776 159.795C121.043 158.547 121.262 157.365 121.505 156.239C121.724 155.198 122.073 154.188 122.542 153.234C123.221 151.815 124.422 150.715 125.895 150.164C126.294 150.026 126.713 149.958 127.134 149.961C127.279 149.951 127.425 149.968 127.564 150.01C127.011 150.028 126.464 150.132 125.944 150.318C124.552 150.904 123.431 151.991 122.801 153.363C122.363 154.307 122.039 155.299 121.837 156.32C121.618 157.429 121.391 158.62 121.148 159.859C120.646 162.37 120.095 165.108 119.528 167.959C119.14 169.879 118.759 171.734 118.411 173.459L118.313 173.249L127.977 178.992L130.771 180.693C131.13 180.891 131.471 181.118 131.792 181.373Z" fill="#263238"/>
<path d="M135.753 166.453C135.824 167.173 135.802 167.9 135.688 168.616C135.518 170.347 135.209 172.061 134.764 173.743C134.32 175.426 133.746 177.073 133.047 178.668C132.794 179.346 132.454 179.988 132.035 180.579C132.233 179.888 132.479 179.211 132.772 178.554C134.001 175.331 134.881 171.986 135.396 168.575C135.47 167.861 135.589 167.152 135.753 166.453Z" fill="#263238"/>
<path d="M65.4852 295.267L65.3394 307.628C65.3394 307.628 52.7196 311.637 52.4766 313.921L76.4364 315.055L77.457 295.802L65.4852 295.267Z" fill="#455A64"/>
<path d="M72.8399 306.939C73.0673 307.02 73.2567 307.183 73.3718 307.395C73.4869 307.607 73.5196 307.855 73.4636 308.089C73.3922 308.32 73.2345 308.515 73.0233 308.633C72.812 308.75 72.5636 308.782 72.3296 308.721C72.0895 308.633 71.8901 308.46 71.7691 308.234C71.6482 308.009 71.6142 307.747 71.6735 307.498C71.7753 307.266 71.9628 307.083 72.1969 306.986C72.4309 306.89 72.6933 306.887 72.929 306.98" fill="#E0E0E0"/>
<path d="M76.4363 315.055V313.111L53.4485 312.747C53.4485 312.747 52.355 313.16 52.4441 313.921L76.4363 315.055Z" fill="#E0E0E0"/>
<path d="M64.9586 307.49C64.9586 307.603 65.5418 307.684 66.0926 308.089C66.6434 308.494 66.9026 308.997 67.0484 308.956C67.1942 308.916 67.0484 308.235 66.3275 307.757C65.6066 307.279 64.9343 307.377 64.9586 307.49Z" fill="#263238"/>
<path d="M62.3909 308.405C62.3909 308.519 62.8607 308.745 63.2009 309.256C63.5411 309.766 63.6626 310.301 63.7841 310.301C63.9056 310.301 64.0028 309.645 63.5249 309.013C63.047 308.381 62.399 308.3 62.3909 308.405Z" fill="#263238"/>
<path d="M60.8195 311.346C60.9248 311.346 61.1192 310.803 60.8195 310.147C60.5198 309.491 60.0095 309.215 59.9609 309.337C59.9123 309.458 60.2282 309.79 60.4388 310.333C60.6494 310.876 60.6899 311.329 60.8195 311.346Z" fill="#263238"/>
<path d="M65.2988 304.671C65.3474 304.785 65.8901 304.671 66.5543 304.72C67.2185 304.768 67.7126 305.036 67.7774 304.939C67.8422 304.841 67.3724 304.396 66.5948 304.315C65.8172 304.234 65.2502 304.582 65.2988 304.671Z" fill="#263238"/>
<g opacity="0.3">
<path d="M65.4609 297.713L65.4285 299.917L77.214 300.37L77.3193 298.386L65.4609 297.713Z" fill="black"/>
</g>
<path d="M65.3799 302.176C65.7667 302.305 66.1815 302.325 66.5787 302.233C67.0149 302.177 67.4422 302.065 67.8504 301.901C68.0942 301.81 68.33 301.699 68.5551 301.569C68.6951 301.503 68.8236 301.416 68.9358 301.31C69.017 301.23 69.0691 301.125 69.0838 301.012C69.0985 300.899 69.0749 300.784 69.0168 300.686C68.9611 300.602 68.8868 300.532 68.7997 300.482C68.7126 300.431 68.6151 300.401 68.5146 300.394C68.3622 300.386 68.2095 300.4 68.061 300.435C67.8037 300.485 67.5516 300.558 67.3077 300.654C66.8954 300.819 66.5104 301.046 66.1656 301.326C65.5824 301.82 65.3556 302.249 65.4123 302.274C65.469 302.298 65.7525 301.958 66.3357 301.561C66.6787 301.332 67.0487 301.147 67.4373 301.01C67.6645 300.933 67.8974 300.873 68.1339 300.832C68.3931 300.775 68.6118 300.783 68.6685 300.897C68.7252 301.01 68.6685 300.961 68.6685 301.034C68.5846 301.11 68.4922 301.175 68.3931 301.229C68.1744 301.35 67.9557 301.464 67.7451 301.561C67.3634 301.726 66.9676 301.856 66.5625 301.95C66.1638 302 65.7688 302.075 65.3799 302.176Z" fill="#263238"/>
<path d="M65.55 302.355C65.7908 302.023 65.9186 301.622 65.9145 301.212C65.9594 300.77 65.9265 300.323 65.8173 299.892C65.752 299.635 65.6597 299.385 65.5419 299.147C65.4849 298.986 65.3871 298.842 65.2579 298.73C65.1286 298.618 64.9725 298.541 64.8048 298.507C64.699 298.503 64.5943 298.53 64.5036 298.585C64.4129 298.639 64.3402 298.719 64.2945 298.815C64.223 298.952 64.1738 299.1 64.1487 299.252C64.1082 299.521 64.1082 299.794 64.1487 300.062C64.193 300.515 64.3489 300.949 64.6023 301.326C65.0397 301.974 65.5257 302.136 65.5338 302.095C65.5419 302.055 65.1774 301.796 64.8453 301.18C64.6553 300.828 64.5447 300.438 64.5213 300.038C64.5082 299.804 64.5273 299.57 64.578 299.341C64.6266 299.09 64.7319 298.888 64.8291 298.92C64.9263 298.953 65.1369 299.123 65.226 299.333C65.3358 299.546 65.4253 299.768 65.4933 299.997C65.6096 300.389 65.6696 300.796 65.6715 301.204C65.6067 301.901 65.4609 302.33 65.55 302.355Z" fill="#263238"/>
<path d="M114.328 205.754C114.328 205.754 76.8899 190.04 65.3069 189.384C58.0169 188.963 52.5413 193.628 53.5295 201.145C54.0236 204.912 64.3673 248.935 64.3673 248.935L80.1299 241.742L72.5483 211.294L103.328 226.247L114.328 205.754Z" fill="#263238"/>
<path d="M67.8422 203.591C67.7207 203.697 68.96 205.292 70.2722 207.406C71.5844 209.521 72.4592 211.343 72.605 211.286C72.7508 211.23 72.0785 209.277 70.742 207.123C69.4055 204.968 67.9799 203.494 67.8422 203.591Z" fill="#455A64"/>
<path d="M64.7805 205.341C64.6995 205.479 66.5868 206.677 68.8305 208.314C71.0742 209.95 72.759 211.383 72.8805 211.27C73.002 211.157 71.382 209.48 69.1302 207.86C66.8784 206.24 64.8453 205.211 64.7805 205.341Z" fill="#455A64"/>
<path d="M143.529 215.199C143.529 215.199 138.823 221.266 134.335 222.926C128.665 225.008 86.9825 244.683 86.9825 244.683C86.9825 244.683 79.4171 300.889 80.0165 298.54L62.561 298.118L64.4564 246.351C64.6832 239.725 69.9968 232.111 75.7073 228.726L114.328 205.754L143.529 215.199Z" fill="#263238"/>
<path d="M64.1244 255.828C64.1798 255.595 64.2043 255.355 64.1973 255.115C64.1973 254.597 64.2621 253.925 64.3026 253.082C64.4017 250.59 64.6343 248.105 64.9992 245.638C65.5105 241.992 66.8036 238.5 68.79 235.4C70.0191 233.618 71.5355 232.052 73.2774 230.767C75.1676 229.39 77.1455 228.137 79.1985 227.016C87.5982 222.205 94.8477 217.296 100.21 213.935C102.883 212.234 105.07 210.881 106.56 209.958L108.294 208.889C108.503 208.773 108.701 208.637 108.885 208.484C108.662 208.565 108.447 208.668 108.245 208.791C107.832 209.01 107.224 209.334 106.455 209.772C104.908 210.638 102.705 211.95 99.975 213.603C94.5561 216.891 87.2661 221.743 78.915 226.563C76.8409 227.696 74.844 228.965 72.9372 230.362C71.1517 231.686 69.6018 233.302 68.3526 235.141C66.3544 238.322 65.0797 241.902 64.6185 245.63C64.2849 248.114 64.1117 250.617 64.1001 253.123C64.1001 253.933 64.1001 254.637 64.1001 255.164C64.0883 255.386 64.0964 255.608 64.1244 255.828Z" fill="#455A64"/>
<path d="M128.122 221.12C127.799 220.618 127.442 220.139 127.053 219.686C126.249 218.516 125.69 217.195 125.412 215.802C125.133 214.41 125.14 212.975 125.433 211.586C125.613 211.016 125.754 210.434 125.854 209.845C125.461 210.314 125.184 210.868 125.044 211.465C124.63 212.903 124.568 214.42 124.866 215.887C125.157 217.354 125.802 218.728 126.745 219.889C127.482 220.82 128.09 221.168 128.122 221.12Z" fill="#455A64"/>
<path d="M68.9763 298.118C69.0049 298.026 69.0212 297.931 69.0249 297.835C69.0249 297.608 69.0897 297.333 69.1302 296.984C69.2193 296.174 69.3327 295.105 69.4785 293.744C69.762 290.861 70.167 286.754 70.6692 281.7C70.9041 279.156 71.1714 276.37 71.4792 273.381C71.787 270.392 72.0705 267.193 72.2892 263.823C72.5079 260.453 72.8643 256.93 73.4799 253.293C74.081 249.562 75.1704 245.926 76.7199 242.479C78.338 239.074 80.4748 235.939 83.0541 233.189C85.4709 230.63 88.1172 228.298 90.9597 226.223C95.8313 222.792 100.891 219.636 106.115 216.77C110.545 214.227 114.077 212.056 116.418 210.42C117.601 209.61 118.492 208.954 119.091 208.492L119.763 207.965C119.914 207.847 119.987 207.782 119.982 207.771C119.892 207.807 119.807 207.856 119.731 207.917L119.026 208.403C118.411 208.832 117.495 209.464 116.305 210.25C113.923 211.821 110.375 213.935 105.92 216.438C100.654 219.262 95.5582 222.394 90.66 225.818C87.7796 227.898 85.1003 230.244 82.6572 232.824C80.0319 235.612 77.8591 238.793 76.2177 242.253C74.6617 245.742 73.5723 249.422 72.9777 253.196C72.3702 256.841 72.0624 260.38 71.8113 263.726C71.5602 267.071 71.3091 270.295 71.0013 273.284C70.6935 276.273 70.4991 279.059 70.2804 281.61C69.8511 286.673 69.4704 290.78 69.2679 293.671C69.1599 295.065 69.0789 296.145 69.0249 296.911C69.0249 297.26 68.9844 297.543 68.9682 297.762C68.952 297.981 68.9601 298.118 68.9763 298.118Z" fill="#455A64"/>
<path d="M110.1 116.605C109.512 115.092 108.404 113.837 106.974 113.066C105.545 112.296 103.887 112.06 102.3 112.401C101.601 112.657 100.871 112.815 100.129 112.871C99.2298 112.717 98.3462 112.484 97.4882 112.175C96.516 112.017 95.5199 112.227 94.6936 112.763C93.8672 113.299 93.2697 114.123 93.017 115.075C92.2562 114.89 91.4642 114.873 90.6962 115.025C89.9282 115.178 89.2026 115.496 88.5701 115.957C87.9499 116.438 87.5095 117.113 87.3199 117.874C87.1303 118.635 87.2027 119.438 87.5252 120.153C87.8411 120.745 88.3352 121.214 88.6511 121.822C89.129 122.818 88.9103 124.017 89.2424 125.062C89.5541 125.822 90.0735 126.478 90.741 126.957C91.4086 127.435 92.1973 127.716 93.017 127.767C94.6662 127.852 96.3163 127.618 97.877 127.079" fill="#263238"/>
<path d="M102.559 148.641C102.356 147.07 102.227 145.968 102.227 145.968C102.227 145.968 97.0023 145.968 94.9368 139.488C93.8919 136.248 93.1953 130.837 92.7741 126.366C92.682 125.413 92.7838 124.452 93.0732 123.54C93.3626 122.628 93.8338 121.784 94.4582 121.059C95.0826 120.334 95.8474 119.743 96.7065 119.321C97.5655 118.9 98.501 118.656 99.4566 118.606L113.324 117.885L113.624 120.032L117.277 146.697C117.409 147.664 117.348 148.647 117.099 149.59C116.85 150.534 116.417 151.419 115.824 152.194C115.232 152.969 114.492 153.62 113.647 154.108C112.802 154.597 111.869 154.913 110.902 155.04C109.934 155.17 108.949 155.107 108.005 154.855C107.061 154.603 106.176 154.168 105.401 153.573C104.626 152.979 103.976 152.237 103.488 151.391C103 150.544 102.685 149.61 102.559 148.641Z" fill="#B78876"/>
<path d="M94.7099 130.181C94.744 130.403 94.8627 130.602 95.0409 130.738C95.2191 130.874 95.443 130.936 95.6657 130.91C95.7759 130.903 95.8836 130.874 95.982 130.824C96.0805 130.774 96.1677 130.704 96.2382 130.619C96.3088 130.534 96.3612 130.436 96.3923 130.33C96.4234 130.224 96.4325 130.112 96.419 130.003C96.3888 129.779 96.2712 129.577 96.092 129.441C95.9127 129.304 95.6866 129.244 95.4632 129.274C95.353 129.281 95.2453 129.31 95.1469 129.36C95.0484 129.41 94.9612 129.48 94.8907 129.565C94.8201 129.65 94.7677 129.748 94.7366 129.854C94.7055 129.96 94.6964 130.071 94.7099 130.181Z" fill="#263238"/>
<path d="M94.3536 128.982C94.4751 129.071 95.0421 128.496 95.9736 128.35C96.9051 128.205 97.5936 128.561 97.7151 128.431C97.8366 128.302 97.6179 128.188 97.2939 128.026C96.8546 127.811 96.3584 127.74 95.8764 127.824C95.3995 127.895 94.9588 128.12 94.6209 128.464C94.3536 128.723 94.2888 128.942 94.3536 128.982Z" fill="#263238"/>
<path d="M103.393 128.707C103.427 128.928 103.546 129.127 103.725 129.261C103.903 129.396 104.127 129.456 104.349 129.428C104.459 129.422 104.567 129.393 104.666 129.344C104.765 129.295 104.852 129.227 104.924 129.142C104.995 129.058 105.048 128.96 105.08 128.855C105.112 128.749 105.123 128.638 105.11 128.529C105.076 128.307 104.958 128.107 104.779 127.971C104.601 127.836 104.377 127.774 104.155 127.8C104.044 127.805 103.935 127.834 103.836 127.884C103.736 127.933 103.648 128.003 103.577 128.088C103.505 128.173 103.452 128.272 103.421 128.378C103.389 128.485 103.38 128.597 103.393 128.707Z" fill="#263238"/>
<path d="M103.377 127.719C103.498 127.816 104.065 127.233 104.997 127.095C105.928 126.957 106.617 127.297 106.738 127.168C106.86 127.038 106.641 126.933 106.317 126.763C105.876 126.554 105.382 126.484 104.9 126.56C104.425 126.637 103.985 126.861 103.644 127.2C103.377 127.459 103.32 127.67 103.377 127.719Z" fill="#263238"/>
<path d="M101.133 135.041C100.625 134.972 100.11 134.972 99.6023 135.041C99.3674 135.041 99.1406 135.041 99.0758 134.887C99.0013 134.653 99.0013 134.401 99.0758 134.166C99.2054 133.567 99.3431 132.935 99.4889 132.279C99.8844 130.669 100.155 129.03 100.299 127.378C99.7682 128.964 99.3646 130.589 99.092 132.238C98.9624 132.903 98.8328 133.534 98.7194 134.142C98.6062 134.442 98.6062 134.773 98.7194 135.073C98.7667 135.15 98.8305 135.215 98.9062 135.264C98.9818 135.313 99.0674 135.345 99.1568 135.357C99.2913 135.374 99.4273 135.374 99.5618 135.357C100.097 135.318 100.625 135.212 101.133 135.041Z" fill="#263238"/>
<path d="M102.227 145.968C105.357 145.519 108.301 144.209 110.732 142.185C110.732 142.185 109.29 147.11 102.559 147.523L102.227 145.968Z" fill="#AA6550"/>
<path d="M103.928 135.244C103.774 135.244 103.928 136.248 103.199 137.09C102.47 137.933 101.384 137.989 101.392 138.127C101.4 138.265 101.66 138.289 102.113 138.224C102.697 138.146 103.232 137.858 103.62 137.414C103.999 136.994 104.197 136.441 104.171 135.875C104.146 135.454 103.992 135.227 103.928 135.244Z" fill="#263238"/>
<path d="M102.567 124.171C102.697 124.406 103.596 124.171 104.689 124.098C105.783 124.025 106.698 124.211 106.803 123.968C106.909 123.725 106.666 123.644 106.277 123.458C105.761 123.233 105.201 123.13 104.639 123.157C104.077 123.183 103.529 123.339 103.037 123.612C102.68 123.831 102.51 124.057 102.567 124.171Z" fill="#263238"/>
<path d="M94.2644 126.277C94.4588 126.455 95.0744 126.139 95.8115 126.009C96.5486 125.88 97.2371 125.929 97.3505 125.686C97.3991 125.572 97.2614 125.378 96.9536 125.232C96.5393 125.048 96.0779 124.997 95.6333 125.086C95.1898 125.164 94.7818 125.38 94.4669 125.702C94.232 125.961 94.1753 126.188 94.2644 126.277Z" fill="#263238"/>
<path d="M92.045 123.442C92.045 123.442 95.7143 124.681 99.9263 121.862C102.688 120.015 106.042 118.857 106.876 119.359C107.71 119.862 108.253 122.875 111.291 123.409C111.291 123.409 111.825 129.241 114.118 128.739C115.738 128.383 114.798 121.951 114.118 118.282C113.975 117.573 113.6 116.931 113.051 116.46C112.502 115.989 111.811 115.715 111.088 115.682L106.819 115.512L101.49 117.002L95.771 118.557L91.4132 120.38L92.045 123.442Z" fill="#263238"/>
<path d="M113.607 126.366C113.688 126.309 117.228 124.446 117.884 128.31C118.54 132.174 114.531 132.028 114.498 131.922C114.466 131.817 113.607 126.366 113.607 126.366Z" fill="#B78876"/>
<path d="M115.43 130.254C115.43 130.254 115.511 130.294 115.632 130.327C115.803 130.367 115.982 130.341 116.134 130.254C116.355 130.053 116.519 129.797 116.61 129.513C116.7 129.229 116.715 128.926 116.653 128.634C116.606 128.302 116.487 127.984 116.305 127.702C116.246 127.589 116.161 127.49 116.057 127.416C115.952 127.341 115.832 127.292 115.705 127.273C115.625 127.266 115.544 127.288 115.478 127.333C115.411 127.379 115.363 127.447 115.341 127.524C115.341 127.638 115.341 127.711 115.341 127.727C115.341 127.743 115.252 127.67 115.252 127.508C115.258 127.409 115.298 127.315 115.365 127.241C115.459 127.143 115.586 127.085 115.721 127.079C115.886 127.082 116.047 127.127 116.189 127.211C116.331 127.295 116.449 127.414 116.531 127.557C116.753 127.863 116.895 128.219 116.944 128.593C117.025 128.934 117.001 129.292 116.877 129.619C116.753 129.947 116.534 130.23 116.248 130.432C116.149 130.479 116.041 130.503 115.932 130.503C115.823 130.503 115.715 130.479 115.616 130.432C115.454 130.351 115.422 130.27 115.43 130.254Z" fill="#AA6550"/>
<path d="M93.8999 113.649C93.8999 113.649 94.0295 113.859 94.3049 114.167C94.6993 114.604 95.2024 114.928 95.7629 115.107C96.5956 115.376 97.4856 115.415 98.3387 115.22C99.3995 114.962 100.441 114.632 101.457 114.232C102.509 113.818 103.632 113.617 104.762 113.641C105.718 113.675 106.622 114.082 107.281 114.775C107.73 115.227 108.003 115.824 108.051 116.46C108.084 116.69 108.045 116.925 107.937 117.132C107.897 117.132 107.937 116.889 107.889 116.476C107.788 115.902 107.503 115.376 107.079 114.977C106.454 114.379 105.626 114.04 104.762 114.03C103.683 114.03 102.615 114.234 101.611 114.629C100.578 115.04 99.5138 115.365 98.4278 115.601C97.5109 115.791 96.5591 115.718 95.6819 115.39C95.0864 115.172 94.5682 114.783 94.1915 114.273C93.8999 113.9 93.8999 113.657 93.8999 113.649Z" fill="#455A64"/>
<path d="M106.949 117.351C106.949 117.351 106.755 117.148 106.35 116.865C105.772 116.511 105.107 116.326 104.43 116.33C103.403 116.326 102.391 116.574 101.482 117.051C100.345 117.665 99.171 118.206 97.9661 118.671C96.823 119.026 95.6191 119.142 94.4292 119.012C93.2393 118.883 92.0887 118.51 91.0487 117.918C90.4196 117.564 89.8441 117.122 89.3396 116.605C89.1432 116.43 88.9788 116.222 88.8536 115.99C89.5708 116.624 90.3527 117.18 91.1864 117.65C93.2347 118.725 95.6241 118.949 97.8365 118.274C99.0243 117.794 100.187 117.253 101.32 116.654C102.286 116.165 103.364 115.936 104.446 115.99C105.182 116.018 105.89 116.276 106.471 116.727C106.684 116.888 106.849 117.103 106.949 117.351Z" fill="#455A64"/>
<path d="M94.953 183.171L76.1448 167.141L69.9402 168.543C69.9402 168.543 76.4769 182.134 81.2073 187.116C81.2073 187.116 85.881 193.369 93.5922 190.664C101.303 187.958 94.953 183.171 94.953 183.171Z" fill="#B78876"/>
<path d="M74.7191 149.483H66.7244C66.4227 149.5 66.1285 149.583 65.8631 149.727C65.5977 149.872 65.3678 150.074 65.1901 150.318C65.0125 150.562 64.8915 150.843 64.8361 151.14C64.7806 151.437 64.792 151.743 64.8695 152.035L72.9128 167.692C73.0653 167.99 73.2974 168.24 73.5833 168.415C73.8692 168.589 74.1979 168.681 74.5328 168.68H84.2528C84.4813 168.655 84.7 168.573 84.8893 168.443C85.0785 168.312 85.2326 168.137 85.3377 167.932C85.4427 167.728 85.4955 167.5 85.4914 167.271C85.4872 167.041 85.4263 166.815 85.3139 166.615L77.5622 151.281C77.2983 150.75 76.8937 150.302 76.3923 149.984C75.891 149.667 75.3122 149.494 74.7191 149.483Z" fill="#455A64"/>
<path d="M74.1845 150.431H66.1898C65.9604 150.43 65.7344 150.487 65.5337 150.598C65.333 150.71 65.1643 150.871 65.0439 151.066C64.9234 151.261 64.8553 151.484 64.8461 151.714C64.8368 151.943 64.8867 152.171 64.991 152.375L72.8399 167.692C72.9939 167.989 73.2263 168.238 73.5119 168.413C73.7975 168.587 74.1254 168.679 74.4599 168.68H84.0989C84.2313 168.675 84.3602 168.637 84.4745 168.57C84.5888 168.503 84.6849 168.409 84.7545 168.296C84.8241 168.184 84.8649 168.056 84.8735 167.923C84.882 167.791 84.858 167.659 84.8036 167.538L77.0438 152.213C76.7817 151.678 76.3747 151.228 75.8693 150.913C75.3638 150.598 74.7801 150.431 74.1845 150.431Z" fill="#263238"/>
<path d="M73.5041 156.83L68.6441 158.774L67.6073 162.694L69.9482 168.526L78.5099 169.79L75.9989 167.222L76.3148 164.979C76.3148 164.979 78.7448 164.225 78.7448 163.861C78.7448 163.496 78.4451 162.241 78.0806 162.2C77.1217 162.419 76.1818 162.714 75.2699 163.083C75.2699 163.083 78.2426 160.726 78.1616 160.345C78.0806 159.965 77.7566 159.001 77.1653 158.887C76.574 158.774 71.7626 161.05 71.7626 161.05L70.9526 162.824L70.2722 159.981C70.2722 159.981 74.5571 158.782 73.5041 156.83Z" fill="#B78876"/>
<path d="M74.1197 166.032C74.1197 166.032 73.9982 165.87 73.9496 165.546C73.8984 165.133 73.9451 164.714 74.0858 164.323C74.2265 163.932 74.4573 163.579 74.7596 163.294C75.0026 163.083 75.1889 163.01 75.2051 163.035C74.8354 163.444 74.5321 163.909 74.306 164.412C74.1618 164.939 74.099 165.485 74.1197 166.032Z" fill="#AA6550"/>
<path d="M71.8031 165.181C71.898 164.762 71.9629 164.337 71.9975 163.909C72.0172 163.431 72.0989 162.957 72.2405 162.5C72.333 162.206 72.4946 161.939 72.7116 161.721C72.9286 161.502 73.1948 161.339 73.4879 161.244C74.6462 160.823 75.6992 160.483 76.4606 160.232C76.8677 160.078 77.2879 159.962 77.7161 159.884C77.339 160.099 76.9398 160.273 76.5254 160.402C75.7721 160.694 74.7191 161.066 73.577 161.479C73.3103 161.571 73.0669 161.721 72.8642 161.917C72.6843 162.108 72.5464 162.334 72.4592 162.581C72.3109 163.019 72.2157 163.473 72.1757 163.934C72.16 164.374 72.0317 164.804 71.8031 165.181Z" fill="#AA6550"/>
<path d="M70.6854 164.306C70.6088 163.99 70.6088 163.659 70.6854 163.342C70.7745 162.824 70.896 162.419 70.9689 162.427C71.0449 162.744 71.0449 163.074 70.9689 163.391C70.8798 163.909 70.7583 164.314 70.6854 164.306Z" fill="#AA6550"/>
<path d="M70.5557 153.387C70.5557 153.589 70.6156 153.787 70.7277 153.955C70.8398 154.122 70.9992 154.253 71.1857 154.33C71.3722 154.408 71.5774 154.428 71.7754 154.388C71.9734 154.349 72.1552 154.252 72.298 154.109C72.4407 153.966 72.5379 153.785 72.5773 153.587C72.6167 153.389 72.5965 153.183 72.5192 152.997C72.442 152.81 72.3112 152.651 72.1433 152.539C71.9755 152.427 71.7782 152.367 71.5763 152.367C71.442 152.366 71.3088 152.391 71.1845 152.442C71.0601 152.493 70.9472 152.568 70.8522 152.663C70.7572 152.758 70.6821 152.871 70.6312 152.996C70.5803 153.12 70.5546 153.253 70.5557 153.387Z" fill="#FAFAFA"/>
<path d="M42.546 307.782C43.8147 308.175 44.9909 308.82 46.0042 309.679C47.0175 310.538 47.8469 311.592 48.4428 312.779C49.6236 315.164 50.2416 317.789 50.2491 320.45C50.4111 325.569 48.2889 331.077 45.786 335.556C40.9989 332.478 39.0873 326.12 38.3097 322.88C37.0947 317.712 38.0262 307.636 42.546 307.773" fill="#525FE1"/>
<path d="M51.9339 343.17C51.4349 341.771 51.3144 340.265 51.5847 338.804C51.8549 337.343 52.5063 335.98 53.4729 334.852C54.4593 333.742 55.6573 332.84 56.9967 332.199C58.3361 331.557 59.79 331.19 61.2732 331.118C62.634 331.021 64.1568 331.199 65.0883 332.203C65.4977 332.698 65.7676 333.292 65.8701 333.926C65.9726 334.56 65.9041 335.209 65.6715 335.808C65.1873 336.999 64.3965 338.042 63.3792 338.829C60.0339 341.68 56.2755 343.818 51.9339 343.17Z" fill="#525FE1"/>
<path d="M48.7424 359.427C48.7056 359.077 48.7056 358.724 48.7424 358.374C48.7424 357.621 48.8072 356.657 48.8477 355.499C48.8794 352.308 49.4265 349.143 50.4677 346.127C51.5566 343.105 53.4296 340.427 55.8947 338.367C56.6428 337.762 57.4582 337.246 58.3247 336.828C58.6325 336.674 58.8917 336.601 59.0537 336.529C59.2157 336.456 59.3129 336.439 59.321 336.456C57.3226 337.444 55.5403 338.819 54.0776 340.502C52.6148 342.184 51.5007 344.14 50.7998 346.257C49.7862 349.243 49.2212 352.363 49.1231 355.515C49.0421 356.722 48.9692 357.702 48.9044 358.382C48.8793 358.734 48.8251 359.084 48.7424 359.427Z" fill="#263238"/>
<path d="M42.5136 315.517C42.562 315.663 42.5999 315.812 42.627 315.963C42.6972 316.297 42.7863 316.727 42.8943 317.25C43.1211 318.368 43.4289 319.996 43.7853 322.005C44.5062 326.055 45.4053 331.604 46.2882 337.776C47.1711 343.948 47.8272 349.553 48.2484 353.62C48.459 355.653 48.6129 357.297 48.7101 358.439C48.7479 358.979 48.7803 359.416 48.8073 359.751C48.8305 359.901 48.8305 360.054 48.8073 360.205C48.7668 360.056 48.7397 359.904 48.7263 359.751C48.6858 359.419 48.6291 358.99 48.5562 358.447C48.4104 357.273 48.216 355.644 47.973 353.652C47.487 349.602 46.7823 343.997 45.9156 337.825C45.0489 331.652 44.1741 326.12 43.5261 322.07C43.2021 320.086 42.9429 318.466 42.7161 317.291C42.6351 316.756 42.5703 316.327 42.5136 315.995C42.4924 315.836 42.4924 315.676 42.5136 315.517Z" fill="#263238"/>
<path d="M45.0327 347.31C44.0798 344.332 42.4315 341.624 40.2244 339.41C38.0172 337.196 35.3145 335.539 32.34 334.576C30.8172 334.099 28.9056 333.928 27.885 335.151C26.8644 336.375 27.4152 338.238 28.2009 339.623C29.8909 342.484 32.3908 344.781 35.3851 346.222C38.3794 347.664 41.7338 348.186 45.0246 347.723" fill="#525FE1"/>
<path d="M33.6927 339.258C34.0185 339.315 34.3384 339.402 34.6485 339.517C35.0209 339.627 35.3861 339.759 35.742 339.914C36.1632 340.101 36.6573 340.263 37.1595 340.538C37.7146 340.81 38.2553 341.11 38.7795 341.437C39.3964 341.809 39.9939 342.211 40.5696 342.644C43.2203 344.635 45.3447 347.243 46.758 350.242C47.0651 350.893 47.3355 351.561 47.568 352.243C47.781 352.83 47.9568 353.431 48.0945 354.041C48.2203 354.542 48.3177 355.051 48.3861 355.564C48.4565 355.946 48.5025 356.333 48.5238 356.722C48.5573 357.05 48.5627 357.381 48.54 357.71C48.4509 357.71 48.3942 356.293 47.8191 354.097C47.6658 353.502 47.482 352.916 47.2683 352.34C47.0359 351.671 46.7655 351.017 46.4583 350.38C45.74 348.94 44.8682 347.582 43.8582 346.33C42.8195 345.082 41.652 343.947 40.3752 342.944C39.8158 342.512 39.2345 342.109 38.6337 341.737C38.111 341.397 37.5702 341.086 37.0137 340.805C35.0292 339.728 33.6603 339.331 33.6927 339.258Z" fill="#263238"/>
</svg>
